<?xml version="1.0" encoding="utf-8"?>
<svg width="152" height="160" viewBox="0 0 152 160" fill="none" xmlns="http://www.w3.org/2000/svg">
  <g filter="url(#filter0_d)" transform="matrix(1, 0, 0, 1, -1, 0)">
    <path d="M26.8645 34.2427L20.9157 36.5093L36.0838 49.3825L21.851 49.2608L23.8603 56.1933L16.1991 60.0942L24.8185 63.6474L22.7006 70.3321L42.385 69.702L47.2581 75.3047L58.1877 62.8281L68.329 74.4879L71.5568 71.6805L61.5111 59.9375L73.7391 52.2724L68.912 46.6297L73.0542 26.5361L65.7099 28.0814L63.5812 19.3486L58.4606 26.099L52.8256 22.32L50.9139 36.4838L40.1359 19.7922L36.6184 26.0433L24.7431 22.2752L26.8645 34.2427Z" fill="url(#paint0_linear)"/>
  </g>
  <path d="M 76.281 61.607 L 27.064 88.797 C 25.662 89.571 25.693 91.596 27.118 92.327 L 76.337 117.575 C 76.925 117.877 77.624 117.868 78.204 117.553 L 124.661 92.306 C 126.03 91.562 126.061 89.609 124.717 88.822 L 78.258 61.632 C 77.649 61.276 76.898 61.266 76.281 61.607 Z" fill="#7FD8D3" stroke="black" stroke-width="2"/>
  <g filter="url(#filter1_d)" transform="matrix(1, 0, 0, 1, -1, 0)">
    <path d="M72.7947 48.7423L27.9538 82.8068C26.7451 83.725 26.9597 85.6021 28.3444 86.2239L77.0492 108.094C77.6899 108.381 78.4346 108.312 79.0111 107.911L126.191 75.0692C127.465 74.1824 127.288 72.2454 125.873 71.6056L74.8289 48.5127C74.1601 48.2101 73.3792 48.2982 72.7947 48.7423Z" fill="#A8DEA8"/>
    <path d="M72.7947 48.7423L27.9538 82.8068C26.7451 83.725 26.9597 85.6021 28.3444 86.2239L77.0492 108.094C77.6899 108.381 78.4346 108.312 79.0111 107.911L126.191 75.0692C127.465 74.1824 127.288 72.2454 125.873 71.6056L74.8289 48.5127C74.1601 48.2101 73.3792 48.2982 72.7947 48.7423Z" stroke="black" stroke-width="2"/>
  </g>
  <g filter="url(#filter2_d)" transform="matrix(1, 0, 0, 1, -1, 0)">
    <path d="M75.1325 35.3928L28.5206 76.4137C27.414 77.3875 27.7054 79.1832 29.0632 79.7572L75.912 99.5627C76.626 99.8646 77.4502 99.7266 78.027 99.2086L123.755 58.1471C124.841 57.1715 124.55 55.3984 123.208 54.8216L77.2438 35.0569C76.5342 34.7517 75.7123 34.8825 75.1325 35.3928Z" fill="#FBFFE4"/>
    <path d="M75.1325 35.3928L28.5206 76.4137C27.414 77.3875 27.7054 79.1832 29.0632 79.7572L75.912 99.5627C76.626 99.8646 77.4502 99.7266 78.027 99.2086L123.755 58.1471C124.841 57.1715 124.55 55.3984 123.208 54.8216L77.2438 35.0569C76.5342 34.7517 75.7123 34.8825 75.1325 35.3928Z" stroke="black" stroke-width="2"/>
  </g>
  <ellipse cx="76.671" cy="51.056" rx="7.5" ry="5" transform="matrix(0.951984, -0.306147, 0.306147, 0.951984, -12.949252, 25.923992)" fill="#7AD27A" fill-opacity="0.62"/>
  <ellipse cx="79.341" cy="72.112" rx="15" ry="10" transform="matrix(0.951984, -0.306147, 0.306147, 0.951984, -19.267257, 27.752611)" fill="#7AD27A" fill-opacity="0.62"/>
  <ellipse cx="84.27" cy="50.188" rx="5" ry="3.5" transform="matrix(0.951984, -0.306147, 0.306147, 0.951984, -12.318609, 28.208752)" fill="#2EC7BD" fill-opacity="0.58"/>
  <ellipse cx="58.034" cy="74.605" rx="9.5" ry="6.5" transform="matrix(0.951984, -0.306147, 0.306147, 0.951984, -21.053697, 21.349131)" fill="#2EC7BD" fill-opacity="0.58"/>
  <path d="M 19.619 144.795 L 17.285 144.795 L 17.285 150 L 14.356 150 L 14.356 135.781 L 19.639 135.781 C 21.318 135.781 22.614 136.156 23.525 136.904 C 24.437 137.653 24.893 138.711 24.893 140.078 C 24.893 141.048 24.681 141.859 24.258 142.51 C 23.841 143.154 23.206 143.669 22.354 144.053 L 25.43 149.863 L 25.43 150 L 22.285 150 L 19.619 144.795 Z M 17.285 142.422 L 19.648 142.422 C 20.384 142.422 20.954 142.236 21.357 141.865 C 21.761 141.488 21.963 140.97 21.963 140.312 C 21.963 139.642 21.771 139.115 21.387 138.73 C 21.009 138.346 20.426 138.154 19.639 138.154 L 17.285 138.154 L 17.285 142.422 Z M 35.156 147.07 L 30.02 147.07 L 29.043 150 L 25.928 150 L 31.221 135.781 L 33.936 135.781 L 39.258 150 L 36.143 150 L 35.156 147.07 Z M 30.81 144.697 L 34.365 144.697 L 32.578 139.375 L 30.81 144.697 Z M 44.414 135.781 L 48.066 146.094 L 51.699 135.781 L 55.547 135.781 L 55.547 150 L 52.607 150 L 52.607 146.113 L 52.9 139.404 L 49.063 150 L 47.051 150 L 43.223 139.414 L 43.516 146.113 L 43.516 150 L 40.586 150 L 40.586 135.781 L 44.414 135.781 Z M 61.035 144.99 L 61.035 150 L 58.106 150 L 58.106 135.781 L 63.652 135.781 C 64.72 135.781 65.658 135.977 66.465 136.367 C 67.279 136.758 67.904 137.314 68.34 138.037 C 68.776 138.753 68.994 139.57 68.994 140.488 C 68.994 141.881 68.516 142.982 67.559 143.789 C 66.608 144.59 65.29 144.99 63.604 144.99 L 61.035 144.99 Z M 61.035 142.617 L 63.652 142.617 C 64.427 142.617 65.016 142.435 65.42 142.07 C 65.83 141.706 66.035 141.185 66.035 140.508 C 66.035 139.811 65.83 139.248 65.42 138.818 C 65.01 138.389 64.443 138.167 63.721 138.154 L 61.035 138.154 L 61.035 142.617 Z M 88.887 144.99 L 88.887 150 L 85.957 150 L 85.957 135.781 L 91.504 135.781 C 92.572 135.781 93.509 135.977 94.316 136.367 C 95.13 136.758 95.755 137.314 96.191 138.037 C 96.628 138.753 96.846 139.57 96.846 140.488 C 96.846 141.881 96.367 142.982 95.41 143.789 C 94.46 144.59 93.141 144.99 91.455 144.99 L 88.887 144.99 Z M 88.887 142.617 L 91.504 142.617 C 92.279 142.617 92.868 142.435 93.272 142.07 C 93.682 141.706 93.887 141.185 93.887 140.508 C 93.887 139.811 93.682 139.248 93.272 138.818 C 92.861 138.389 92.295 138.167 91.572 138.154 L 88.887 138.154 L 88.887 142.617 Z M 110.029 145.264 C 109.919 146.794 109.352 147.998 108.33 148.877 C 107.314 149.756 105.973 150.195 104.307 150.195 C 102.484 150.195 101.048 149.583 100 148.359 C 98.958 147.129 98.438 145.443 98.438 143.301 L 98.438 142.432 C 98.438 141.064 98.678 139.86 99.16 138.818 C 99.642 137.777 100.329 136.979 101.221 136.426 C 102.119 135.866 103.161 135.586 104.346 135.586 C 105.986 135.586 107.308 136.025 108.311 136.904 C 109.313 137.783 109.893 139.017 110.049 140.605 L 107.119 140.605 C 107.048 139.687 106.79 139.023 106.348 138.613 C 105.911 138.197 105.244 137.988 104.346 137.988 C 103.369 137.988 102.637 138.34 102.148 139.043 C 101.667 139.74 101.419 140.824 101.406 142.295 L 101.406 143.369 C 101.406 144.906 101.637 146.029 102.1 146.738 C 102.568 147.448 103.304 147.803 104.307 147.803 C 105.212 147.803 105.885 147.598 106.328 147.187 C 106.777 146.771 107.035 146.13 107.1 145.264 L 110.029 145.264 Z M 119.98 147.07 L 114.844 147.07 L 113.867 150 L 110.752 150 L 116.045 135.781 L 118.76 135.781 L 124.082 150 L 120.967 150 L 119.98 147.07 Z M 115.635 144.697 L 119.189 144.697 L 117.402 139.375 L 115.635 144.697 Z M 130.674 144.795 L 128.34 144.795 L 128.34 150 L 125.41 150 L 125.41 135.781 L 130.693 135.781 C 132.373 135.781 133.669 136.156 134.58 136.904 C 135.492 137.653 135.947 138.711 135.947 140.078 C 135.947 141.048 135.736 141.859 135.312 142.51 C 134.896 143.154 134.261 143.669 133.408 144.053 L 136.484 149.863 L 136.484 150 L 133.34 150 L 130.674 144.795 Z M 128.34 142.422 L 130.703 142.422 C 131.439 142.422 132.008 142.236 132.412 141.865 C 132.816 141.488 133.018 140.97 133.018 140.312 C 133.018 139.642 132.826 139.115 132.441 138.73 C 132.064 138.346 131.481 138.154 130.693 138.154 L 128.34 138.154 L 128.34 142.422 Z" fill="grey" fill-opacity="0.8"/>
  <line x1="76.5" y1="155" x2="76.5" y2="132" stroke="#333333"/>
  <defs>
    <filter id="filter0_d" x="14.1991" y="17.3486" width="61.5401" height="59.9561" filterUnits="userSpaceOnUse" color-interpolation-filters="sRGB">
      <feFlood flood-opacity="0" result="BackgroundImageFix"/>
      <feColorMatrix in="SourceAlpha" type="matrix" values="0 0 0 0 0 0 0 0 0 0 0 0 0 0 0 0 0 0 127 0"/>
      <feOffset/>
      <feGaussianBlur stdDeviation="1"/>
      <feColorMatrix type="matrix" values="0 0 0 0 0 0 0 0 0 0 0 0 0 0 0 0 0 0 0.25 0"/>
      <feBlend mode="normal" in2="BackgroundImageFix" result="effect1_dropShadow"/>
      <feBlend mode="normal" in="SourceGraphic" in2="effect1_dropShadow" result="shape"/>
    </filter>
    <filter id="filter1_d" x="21.6648" y="39.7868" width="110.645" height="80.7073" filterUnits="userSpaceOnUse" color-interpolation-filters="sRGB">
      <feFlood flood-opacity="0" result="BackgroundImageFix"/>
      <feColorMatrix in="SourceAlpha" type="matrix" values="0 0 0 0 0 0 0 0 0 0 0 0 0 0 0 0 0 0 127 0"/>
      <feOffset dy="4"/>
      <feColorMatrix type="matrix" values="0 0 0 0 0 0 0 0 0 0 0 0 0 0 0 0 0 0 0.25 0"/>
      <feBlend mode="normal" in2="BackgroundImageFix" result="effect1_dropShadow"/>
      <feBlend mode="normal" in="SourceGraphic" in2="effect1_dropShadow" result="shape"/>
    </filter>
    <filter id="filter2_d" x="18.4803" y="21.5759" width="115.394" height="95.717" filterUnits="userSpaceOnUse" color-interpolation-filters="sRGB">
      <feFlood flood-opacity="0" result="BackgroundImageFix"/>
      <feColorMatrix in="SourceAlpha" type="matrix" values="0 0 0 0 0 0 0 0 0 0 0 0 0 0 0 0 0 0 127 0"/>
      <feOffset dy="4"/>
      <feColorMatrix type="matrix" values="0 0 0 0 0 0 0 0 0 0 0 0 0 0 0 0 0 0 0.25 0"/>
      <feBlend mode="normal" in2="BackgroundImageFix" result="effect1_dropShadow"/>
      <feBlend mode="normal" in="SourceGraphic" in2="effect1_dropShadow" result="shape"/>
    </filter>
    <linearGradient id="paint0_linear" x1="21.8379" y1="69.7537" x2="72.0175" y2="25.3809" gradientUnits="userSpaceOnUse">
      <stop stop-color="#B40C0D"/>
      <stop offset="1" stop-color="#D6504E"/>
    </linearGradient>
  </defs>
</svg>