<svg xmlns="http://www.w3.org/2000/svg" width="15.787" height="15.673">
    <defs>
        <linearGradient id="b" x1=".232" y1=".819" x2=".885" y2=".233" gradientUnits="objectBoundingBox">
            <stop offset="0" stop-color="#b40c0d"/>
            <stop offset="1" stop-color="#d6504e"/>
        </linearGradient>
        <filter id="a" x="0" y="0" width="9.26" height="9.005" filterUnits="userSpaceOnUse">
            <feOffset/>
            <feGaussianBlur result="blur"/>
            <feFlood flood-opacity=".251"/>
            <feComposite operator="in" in2="blur"/>
            <feComposite in="SourceGraphic"/>
        </filter>
    </defs>
    <g filter="url(#a)">
        <path data-name="Path 76" d="M3.824 4.511l-.957.365 2.44 2.072-2.291-.02.324 1.116-1.233.628 1.387.572-.341 1.076 3.168-.1.784.9 1.76-2.009 1.635 1.877.519-.452L9.4 8.646l1.968-1.234-.777-.912.667-3.234-1.182.249-.343-1.401L8.909 3.2 8 2.592l-.308 2.28-1.733-2.687-.566 1.006-1.911-.606z" transform="translate(-2.11 -2.11)" fill="url(#b)"/>
    </g>
    <path data-name="Path 77" d="M7.951 5.699L3.354 8.886a2 2 0 00.057 3.326l4.6 2.959a2 2 0 002.209-.029l4.338-2.956a2 2 0 00.057-3.265L10.274 5.73a2 2 0 00-2.323-.031z" fill="#7fd8d3" stroke="#000" stroke-width=".3"/>
    <path data-name="Path 78" d="M7.812 5.335l-4.17 3.168a2 2 0 00.391 3.417l4.394 1.973a2 2 0 001.962-.183l4.388-3.055a2 2 0 00-.318-3.464L9.847 5.106a2 2 0 00-2.035.229z" fill="#a8dea8" stroke="#000" stroke-width=".3"/>
    <path data-name="Path 79" d="M8.193 3.286l-4.7 4.133a2 2 0 00.543 3.344l4.1 1.732a2 2 0 002.115-.354l4.614-4.143a2 2 0 00-.546-3.325l-4.02-1.726a2 2 0 00-2.106.339z" fill="#fbffe4" stroke="#000" stroke-width=".3"/>
    <ellipse data-name="Ellipse 2" cx="1.207" cy=".805" rx="1.207" ry=".805" transform="rotate(-17.82 18.93 -22.642)" fill="rgba(122,210,122,0.62)"/>
    <ellipse data-name="Ellipse 3" cx="2.414" cy="1.609" rx="2.414" ry="1.609" transform="rotate(-17.82 27.994 -18.063)" fill="rgba(122,210,122,0.62)"/>
    <ellipse data-name="Ellipse 4" cx=".805" cy=".563" rx=".805" ry=".563" transform="rotate(-17.82 19.666 -28.016)" fill="rgba(46,199,189,0.58)"/>
    <ellipse data-name="Ellipse 5" cx="1.529" cy="1.046" rx="1.529" ry="1.046" transform="rotate(-17.82 28.91 -10.03)" fill="rgba(46,199,189,0.58)"/>
</svg>