<svg width="152" height="160" viewBox="0 0 152 160" fill="none" xmlns="http://www.w3.org/2000/svg">
<g filter="url(#filter0_d)">
<path d="M26.8645 34.2427L20.9157 36.5093L36.0838 49.3825L21.851 49.2608L23.8603 56.1933L16.1991 60.0942L24.8185 63.6474L22.7006 70.3321L42.385 69.702L47.2581 75.3047L58.1877 62.8281L68.329 74.4879L71.5568 71.6805L61.5111 59.9375L73.7391 52.2724L68.912 46.6297L73.0542 26.5361L65.7099 28.0814L63.5812 19.3486L58.4606 26.099L52.8256 22.32L50.9139 36.4838L40.1359 19.7922L36.6184 26.0433L24.7431 22.2752L26.8645 34.2427Z" fill="url(#paint0_linear)"/>
</g>
<path d="M77.2806 61.6073L28.0635 88.7968C26.6621 89.571 26.6932 91.5962 28.1178 92.327L77.3365 117.575C77.9245 117.877 78.6236 117.868 79.2043 117.553L125.661 92.3056C127.03 91.5619 127.061 89.6088 125.717 88.8222L79.258 61.6318C78.6493 61.2756 77.898 61.2663 77.2806 61.6073Z" fill="#7FD8D3" stroke="black" stroke-width="2"/>
<g filter="url(#filter1_d)">
<path d="M72.7947 48.7423L27.9538 82.8068C26.7451 83.725 26.9597 85.6021 28.3444 86.2239L77.0492 108.094C77.6899 108.381 78.4346 108.312 79.0111 107.911L126.191 75.0692C127.465 74.1824 127.288 72.2454 125.873 71.6056L74.8289 48.5127C74.1601 48.2101 73.3792 48.2982 72.7947 48.7423Z" fill="#A8DEA8"/>
<path d="M72.7947 48.7423L27.9538 82.8068C26.7451 83.725 26.9597 85.6021 28.3444 86.2239L77.0492 108.094C77.6899 108.381 78.4346 108.312 79.0111 107.911L126.191 75.0692C127.465 74.1824 127.288 72.2454 125.873 71.6056L74.8289 48.5127C74.1601 48.2101 73.3792 48.2982 72.7947 48.7423Z" stroke="black" stroke-width="2"/>
</g>
<g filter="url(#filter2_d)">
<path d="M75.1325 35.3928L28.5206 76.4137C27.414 77.3875 27.7054 79.1832 29.0632 79.7572L75.912 99.5627C76.626 99.8646 77.4502 99.7266 78.027 99.2086L123.755 58.1471C124.841 57.1715 124.55 55.3984 123.208 54.8216L77.2438 35.0569C76.5342 34.7517 75.7123 34.8825 75.1325 35.3928Z" fill="#FBFFE4"/>
<path d="M75.1325 35.3928L28.5206 76.4137C27.414 77.3875 27.7054 79.1832 29.0632 79.7572L75.912 99.5627C76.626 99.8646 77.4502 99.7266 78.027 99.2086L123.755 58.1471C124.841 57.1715 124.55 55.3984 123.208 54.8216L77.2438 35.0569C76.5342 34.7517 75.7123 34.8825 75.1325 35.3928Z" stroke="black" stroke-width="2"/>
</g>
<ellipse cx="76.6706" cy="51.056" rx="7.5" ry="5" transform="rotate(-17.8272 76.6706 51.056)" fill="#7AD27A" fill-opacity="0.62"/>
<ellipse cx="79.3412" cy="72.112" rx="15" ry="10" transform="rotate(-17.8272 79.3412 72.112)" fill="#7AD27A" fill-opacity="0.62"/>
<ellipse cx="84.2697" cy="50.1879" rx="5" ry="3.5" transform="rotate(-17.8272 84.2697 50.1879)" fill="#2EC7BD" fill-opacity="0.58"/>
<ellipse cx="58.0338" cy="74.6054" rx="9.5" ry="6.5" transform="rotate(-17.8272 58.0338 74.6054)" fill="#2EC7BD" fill-opacity="0.58"/>
<path d="M21.6191 144.795H19.2852V150H16.3555V135.781H21.6387C23.3184 135.781 24.6139 136.156 25.5254 136.904C26.4368 137.653 26.8926 138.711 26.8926 140.078C26.8926 141.048 26.681 141.859 26.2578 142.51C25.8411 143.154 25.2064 143.669 24.3535 144.053L27.4297 149.863V150H24.2852L21.6191 144.795ZM19.2852 142.422H21.6484C22.3841 142.422 22.9538 142.236 23.3574 141.865C23.7611 141.488 23.9629 140.97 23.9629 140.312C23.9629 139.642 23.7708 139.115 23.3867 138.73C23.0091 138.346 22.4264 138.154 21.6387 138.154H19.2852V142.422ZM37.1562 147.07H32.0195L31.043 150H27.9277L33.2207 135.781H35.9355L41.2578 150H38.1426L37.1562 147.07ZM32.8105 144.697H36.3652L34.5781 139.375L32.8105 144.697ZM46.4141 135.781L50.0664 146.094L53.6992 135.781H57.5469V150H54.6074V146.113L54.9004 139.404L51.0625 150H49.0508L45.2227 139.414L45.5156 146.113V150H42.5859V135.781H46.4141ZM63.0352 144.99V150H60.1055V135.781H65.6523C66.7201 135.781 67.6576 135.977 68.4648 136.367C69.2786 136.758 69.9036 137.314 70.3398 138.037C70.776 138.753 70.9941 139.57 70.9941 140.488C70.9941 141.881 70.5156 142.982 69.5586 143.789C68.6081 144.59 67.2897 144.99 65.6035 144.99H63.0352ZM63.0352 142.617H65.6523C66.4271 142.617 67.0163 142.435 67.4199 142.07C67.8301 141.706 68.0352 141.185 68.0352 140.508C68.0352 139.811 67.8301 139.248 67.4199 138.818C67.0098 138.389 66.4434 138.167 65.7207 138.154H63.0352V142.617ZM90.8867 144.99V150H87.957V135.781H93.5039C94.5716 135.781 95.5091 135.977 96.3164 136.367C97.1302 136.758 97.7552 137.314 98.1914 138.037C98.6276 138.753 98.8457 139.57 98.8457 140.488C98.8457 141.881 98.3672 142.982 97.4102 143.789C96.4596 144.59 95.1413 144.99 93.4551 144.99H90.8867ZM90.8867 142.617H93.5039C94.2786 142.617 94.8678 142.435 95.2715 142.07C95.6816 141.706 95.8867 141.185 95.8867 140.508C95.8867 139.811 95.6816 139.248 95.2715 138.818C94.8613 138.389 94.2949 138.167 93.5723 138.154H90.8867V142.617ZM112.029 145.264C111.919 146.794 111.352 147.998 110.33 148.877C109.314 149.756 107.973 150.195 106.307 150.195C104.484 150.195 103.048 149.583 102 148.359C100.958 147.129 100.438 145.443 100.438 143.301V142.432C100.438 141.064 100.678 139.86 101.16 138.818C101.642 137.777 102.329 136.979 103.221 136.426C104.119 135.866 105.161 135.586 106.346 135.586C107.986 135.586 109.308 136.025 110.311 136.904C111.313 137.783 111.893 139.017 112.049 140.605H109.119C109.048 139.687 108.79 139.023 108.348 138.613C107.911 138.197 107.244 137.988 106.346 137.988C105.369 137.988 104.637 138.34 104.148 139.043C103.667 139.74 103.419 140.824 103.406 142.295V143.369C103.406 144.906 103.637 146.029 104.1 146.738C104.568 147.448 105.304 147.803 106.307 147.803C107.212 147.803 107.885 147.598 108.328 147.187C108.777 146.771 109.035 146.13 109.1 145.264H112.029ZM121.98 147.07H116.844L115.867 150H112.752L118.045 135.781H120.76L126.082 150H122.967L121.98 147.07ZM117.635 144.697H121.189L119.402 139.375L117.635 144.697ZM132.674 144.795H130.34V150H127.41V135.781H132.693C134.373 135.781 135.669 136.156 136.58 136.904C137.492 137.653 137.947 138.711 137.947 140.078C137.947 141.048 137.736 141.859 137.312 142.51C136.896 143.154 136.261 143.669 135.408 144.053L138.484 149.863V150H135.34L132.674 144.795ZM130.34 142.422H132.703C133.439 142.422 134.008 142.236 134.412 141.865C134.816 141.488 135.018 140.97 135.018 140.312C135.018 139.642 134.826 139.115 134.441 138.73C134.064 138.346 133.481 138.154 132.693 138.154H130.34V142.422Z" fill="grey" fill-opacity="0.8"/>
<line x1="78.5" y1="155" x2="78.5" y2="132" stroke="#333333"/>
<defs>
<filter id="filter0_d" x="14.1991" y="17.3486" width="61.5401" height="59.9561" filterUnits="userSpaceOnUse" color-interpolation-filters="sRGB">
<feFlood flood-opacity="0" result="BackgroundImageFix"/>
<feColorMatrix in="SourceAlpha" type="matrix" values="0 0 0 0 0 0 0 0 0 0 0 0 0 0 0 0 0 0 127 0"/>
<feOffset/>
<feGaussianBlur stdDeviation="1"/>
<feColorMatrix type="matrix" values="0 0 0 0 0 0 0 0 0 0 0 0 0 0 0 0 0 0 0.25 0"/>
<feBlend mode="normal" in2="BackgroundImageFix" result="effect1_dropShadow"/>
<feBlend mode="normal" in="SourceGraphic" in2="effect1_dropShadow" result="shape"/>
</filter>
<filter id="filter1_d" x="21.6648" y="39.7868" width="110.645" height="80.7073" filterUnits="userSpaceOnUse" color-interpolation-filters="sRGB">
<feFlood flood-opacity="0" result="BackgroundImageFix"/>
<feColorMatrix in="SourceAlpha" type="matrix" values="0 0 0 0 0 0 0 0 0 0 0 0 0 0 0 0 0 0 127 0"/>
<feOffset dy="4"/>
<feColorMatrix type="matrix" values="0 0 0 0 0 0 0 0 0 0 0 0 0 0 0 0 0 0 0.25 0"/>
<feBlend mode="normal" in2="BackgroundImageFix" result="effect1_dropShadow"/>
<feBlend mode="normal" in="SourceGraphic" in2="effect1_dropShadow" result="shape"/>
</filter>
<filter id="filter2_d" x="18.4803" y="21.5759" width="115.394" height="95.717" filterUnits="userSpaceOnUse" color-interpolation-filters="sRGB">
<feFlood flood-opacity="0" result="BackgroundImageFix"/>
<feColorMatrix in="SourceAlpha" type="matrix" values="0 0 0 0 0 0 0 0 0 0 0 0 0 0 0 0 0 0 127 0"/>
<feOffset dy="4"/>
<feColorMatrix type="matrix" values="0 0 0 0 0 0 0 0 0 0 0 0 0 0 0 0 0 0 0.25 0"/>
<feBlend mode="normal" in2="BackgroundImageFix" result="effect1_dropShadow"/>
<feBlend mode="normal" in="SourceGraphic" in2="effect1_dropShadow" result="shape"/>
</filter>
<linearGradient id="paint0_linear" x1="21.8379" y1="69.7537" x2="72.0175" y2="25.3809" gradientUnits="userSpaceOnUse">
<stop stop-color="#B40C0D"/>
<stop offset="1" stop-color="#D6504E"/>
</linearGradient>
</defs>
</svg>
